<svg width="24" height="24" viewBox="0 0 24 24" fill="none" xmlns="http://www.w3.org/2000/svg">
<path d="M7.08585 7.01731L4.4346 5.31856C4.38115 5.2858 4.33582 5.24135 4.30201 5.18856C4.26821 5.13577 4.2468 5.076 4.2394 5.01375C4.232 4.9515 4.23881 4.88838 4.2593 4.82913C4.27979 4.76989 4.31345 4.71606 4.35773 4.67168L5.35335 3.67606C5.5446 3.48481 5.8671 3.52606 6.00398 3.76043L7.66148 6.45481C7.87898 6.82606 7.45335 7.24231 7.08585 7.01731ZM4.76835 15.1886L1.6896 15.2504C1.627 15.2518 1.56552 15.2673 1.50978 15.2958C1.45404 15.3244 1.40549 15.3651 1.36777 15.4151C1.33006 15.4651 1.30416 15.523 1.29203 15.5844C1.2799 15.6459 1.28185 15.7092 1.29773 15.7698L1.65585 17.1311C1.72523 17.3936 2.02335 17.5192 2.2596 17.3879L4.98023 15.9648C5.35523 15.7529 5.1996 15.1792 4.76835 15.1886ZM11.9196 20.4179L11.2446 23.4161C11.1827 23.6767 11.3796 23.9279 11.6477 23.9279H13.0559C13.3277 23.9279 13.5246 23.6711 13.4571 23.4086L12.724 20.4104C12.6152 19.9923 12.0209 19.9979 11.9196 20.4179ZM17.4134 7.01731L20.0646 5.31856C20.2934 5.17793 20.3309 4.86106 20.1415 4.67168L19.1459 3.67606C19.101 3.63136 19.0465 3.59754 18.9865 3.57718C18.9265 3.55683 18.8627 3.55048 18.7998 3.55862C18.737 3.56677 18.6769 3.58919 18.6241 3.62417C18.5713 3.65916 18.5272 3.70577 18.4952 3.76043L16.8377 6.45481C16.6202 6.82606 17.0459 7.24231 17.4134 7.01731ZM19.7309 15.1886L22.8096 15.2504C22.8722 15.2518 22.9337 15.2673 22.9894 15.2958C23.0452 15.3244 23.0937 15.3651 23.1314 15.4151C23.1691 15.4651 23.195 15.523 23.2072 15.5844C23.2193 15.6459 23.2174 15.7092 23.2015 15.7698L22.8434 17.1311C22.8271 17.1922 22.7972 17.2489 22.7557 17.2967C22.7143 17.3446 22.6625 17.3823 22.6043 17.4071C22.546 17.4319 22.4829 17.443 22.4197 17.4397C22.3565 17.4364 22.2949 17.4187 22.2396 17.3879L19.519 15.9648C19.144 15.7529 19.2996 15.1792 19.7309 15.1886Z" fill="#FFC107"/>
<path d="M13.0091 1.47086L15.5328 7.22711C15.6278 7.44374 15.7791 7.63092 15.971 7.76911C16.163 7.9073 16.3885 7.99144 16.6241 8.01273L22.7722 8.56398C23.4678 8.66523 23.7453 9.51836 23.2409 10.0096L18.6097 13.9002C18.2347 14.2152 18.0641 14.7102 18.1672 15.1884L19.5134 21.4902C19.6316 22.1821 18.9059 22.7109 18.2834 22.3827L12.9172 19.2402C12.7148 19.1214 12.4844 19.0588 12.2497 19.0588C12.015 19.0588 11.7846 19.1214 11.5822 19.2402L6.21595 22.3809C5.59532 22.7071 4.86782 22.1802 4.98595 21.4884L6.3322 15.1865C6.43345 14.7084 6.2647 14.2134 5.8897 13.8984L1.25657 10.0115C0.754072 9.52211 1.03157 8.66711 1.72532 8.56586L7.87345 8.01461C8.10901 7.99331 8.33453 7.90918 8.52648 7.77099C8.71843 7.6328 8.86977 7.44562 8.9647 7.22898L11.4884 1.47273C11.8016 0.842735 12.6978 0.842735 13.0091 1.47086Z" fill="#FDD835"/>
<path d="M12.8258 7.57195L12.3983 3.3307C12.3814 3.09445 12.3327 2.68945 12.7114 2.68945C13.0114 2.68945 13.1746 3.31383 13.1746 3.31383L14.4571 6.71883C14.9408 8.01445 14.7421 8.45883 14.2752 8.72133C13.7389 9.02133 12.9477 8.78695 12.8258 7.57195Z" fill="#FFFF8D"/>
<path d="M18.1151 13.5231L21.7938 10.6525C21.9757 10.5006 22.3038 10.2587 22.0413 9.98312C21.8332 9.76562 21.2707 10.0787 21.2707 10.0787L18.0513 11.3369C17.0913 11.6687 16.4538 12.16 16.3976 12.7787C16.3244 13.6037 17.0651 14.2394 18.1151 13.5231Z" fill="#F4B400"/>
</svg>
